<svg xmlns="http://www.w3.org/2000/svg" viewBox="0 0 100 115" role="img" aria-hidden="true">
  <title>Mapa do Brasil</title>
  <!-- Silhueta simplificada do território brasileiro, preenchimento amarelo ouro -->
  <path
    fill="#e8a020"
    stroke="#c58a18"
    stroke-width="0.35"
    d="M18 28c4-10 18-16 32-14 8 1 16 5 22 11 4-2 9-3 14-2 10 2 18 10 20 20 2 8 0 16-4 23 3 6 5 13 4 20-1 10-8 18-17 22 2 8 1 17-3 24-5 10-15 17-26 19-12 2-24-2-33-10-6 4-13 6-21 6-14 0-26-8-32-20-4-9-4-19 0-28-6-8-8-18-5-28 2-7 7-13 13-17-2-6-1-13 2-19 4-8 12-14 21-16 3-10 12-17 23-18 5-1 10 0 14 2z"
  />
</svg>
